<svg width="24" height="24" viewBox="0 0 24 24" fill="none" xmlns="http://www.w3.org/2000/svg">
<path d="M10.0293 0.887569C11.1594 -0.295261 12.9919 -0.296126 14.1221 0.886593L19.8516 6.88366C20.9815 8.06659 20.9807 9.98498 19.8506 11.1678L14.8232 16.4296L17.3926 19.119L21.0771 15.2645L24 18.2206L20.3115 22.0809C18.7533 23.7114 16.1488 23.7107 14.5908 22.08L12 19.368L9.44043 22.0467C7.86502 23.6956 5.2318 23.6955 3.65625 22.0467L0 18.2206L2.92285 15.2655L6.60645 19.12L9.25195 16.3514L4.29883 11.1678C3.16918 9.98489 3.16984 8.0664 4.2998 6.88366L10.0293 0.887569ZM8.02441 9.08679L12.1162 13.371L16.209 9.08679L12.1162 4.80359L8.02441 9.08679Z" fill="url(#paint0_linear_134_1087)"/>
<defs>
<linearGradient id="paint0_linear_134_1087" x1="10.9968" y1="14.3721" x2="19.7973" y2="23.3463" gradientUnits="userSpaceOnUse">
<stop stop-color="#015DE1"/>
<stop offset="1" stop-color="#64CDF7"/>
</linearGradient>
</defs>
</svg>
